<svg width="21" height="20" viewBox="0 0 21 20" fill="none" xmlns="http://www.w3.org/2000/svg">
<path d="M10.5 7.50977C14.1819 7.50977 17.1666 6.39048 17.1666 5.00977C17.1666 3.62905 14.1819 2.50977 10.5 2.50977C6.81808 2.50977 3.83331 3.62905 3.83331 5.00977C3.83331 6.39048 6.81808 7.50977 10.5 7.50977Z" stroke="white" stroke-width="1.25" stroke-linecap="round" stroke-linejoin="round"/>
<path d="M3.83331 5.00977V10.0098C3.83331 10.6728 4.53569 11.3087 5.78593 11.7775C7.03618 12.2464 8.73187 12.5098 10.5 12.5098C12.2681 12.5098 13.9638 12.2464 15.214 11.7775C16.4643 11.3087 17.1666 10.6728 17.1666 10.0098V5.00977" stroke="white" stroke-linecap="round" stroke-linejoin="round"/>
<path d="M3.83331 10.0098V15.0098C3.83331 15.6728 4.53569 16.3087 5.78593 16.7775C7.03618 17.2464 8.73187 17.5098 10.5 17.5098C12.2681 17.5098 13.9638 17.2464 15.214 16.7775C16.4643 16.3087 17.1666 15.6728 17.1666 15.0098V10.0098" stroke="white" stroke-linecap="round" stroke-linejoin="round"/>
</svg>
