<svg width="20" height="20" viewBox="0 0 20 20" fill="none" xmlns="http://www.w3.org/2000/svg">
<path d="M18.1892 7.44818C18.1892 7.72432 18.4131 7.94818 18.6892 7.94818C18.9654 7.94818 19.1892 7.72432 19.1892 7.44818H18.1892ZM10.3267 4.71777H17.4946V3.71777H10.3267V4.71777ZM17.4946 4.71777C17.7926 4.71777 18.1892 5.04793 18.1892 5.66583H19.1892C19.1892 4.68425 18.5162 3.71777 17.4946 3.71777V4.71777ZM18.1892 5.66583V7.44818H19.1892V5.66583H18.1892ZM16.8495 8.06194H10.3267V9.06194H16.8495V8.06194ZM10.3267 8.06194C10.0288 8.06194 9.63208 7.73178 9.63208 7.11389H8.63208C8.63208 8.09547 9.30511 9.06194 10.3267 9.06194V8.06194ZM9.63208 7.11389V5.66583H8.63208V7.11389H9.63208ZM9.63208 5.66583C9.63208 5.04793 10.0288 4.71777 10.3267 4.71777V3.71777C9.30511 3.71777 8.63208 4.68425 8.63208 5.66583H9.63208Z" fill="white"/>
<path d="M18.1055 9.41403C18.6645 9.41403 19.1176 8.96086 19.1176 8.40184C19.1176 7.84282 18.6645 7.38965 18.1055 7.38965C17.5464 7.38965 17.0933 7.84282 17.0933 8.40184C17.0933 8.96086 17.5464 9.41403 18.1055 9.41403Z" stroke="white" stroke-linecap="round" stroke-linejoin="round"/>
<path d="M18.6893 9.25001V10.4293C18.6893 11.3895 18.3079 12.3103 17.629 12.9892C16.95 13.6681 16.0292 14.0495 15.0691 14.0495H13.1327" stroke="white" stroke-linecap="round" stroke-linejoin="round"/>
<path d="M15.0691 11.877L12.897 14.049L15.0691 16.2211" stroke="white" stroke-linecap="round" stroke-linejoin="round"/>
<path d="M1.3158 12.5301V14.3531C1.3158 15.1529 1.85066 15.8012 2.51044 15.8012H9.67832C10.3381 15.8012 10.873 15.1529 10.873 14.3531V12.9051C10.873 12.1053 10.3381 11.457 9.67832 11.457H3.02811" stroke="white" stroke-linejoin="round"/>
<path d="M1.89455 10.7364C1.33553 10.7364 0.882356 11.1895 0.882356 11.7486C0.882356 12.3076 1.33553 12.7607 1.89455 12.7607C2.45356 12.7607 2.90674 12.3076 2.90674 11.7486C2.90674 11.1895 2.45356 10.7364 1.89455 10.7364Z" stroke="white" stroke-linecap="round" stroke-linejoin="round"/>
<path d="M1.3158 10.6621V9.72056C1.3158 8.76044 1.69721 7.83964 2.37611 7.16073C3.05502 6.48182 3.97582 6.10042 4.93594 6.10042H6.87476" stroke="white" stroke-linecap="round" stroke-linejoin="round"/>
<path d="M4.93595 8.27246L7.10803 6.10038L4.93595 3.92829" stroke="white" stroke-linecap="round" stroke-linejoin="round"/>
</svg>
