<svg width="21" height="20" viewBox="0 0 21 20" fill="none" xmlns="http://www.w3.org/2000/svg">
<g clip-path="url(#clip0_116_7028)">
<path d="M17.2499 6.25977L17.2499 10.2441M17.2499 13.7598L17.2499 10.2441M10.2499 6.25977L10.2499 9.07227L10.2499 13.7598M17.2499 10.2441C17.2499 10.2441 5.24988 10.2441 4.74988 10.2441C4.24988 10.2441 3.24988 10.0098 3.24988 9.07227C3.24988 8.13477 3.24988 6.25977 3.24988 6.25977" stroke="white"/>
<path d="M17.25 6.38477C16.1454 6.38477 15.25 5.48934 15.25 4.38477C15.25 3.2802 16.1454 2.38477 17.25 2.38477C18.3546 2.38477 19.25 3.2802 19.25 4.38477C19.25 5.48934 18.3546 6.38477 17.25 6.38477Z" stroke="white" stroke-width="1.25" stroke-linecap="round" stroke-linejoin="round"/>
<path d="M17.25 17.6348C16.1454 17.6348 15.25 16.7393 15.25 15.6348C15.25 14.5302 16.1454 13.6348 17.25 13.6348C18.3546 13.6348 19.25 14.5302 19.25 15.6348C19.25 16.7393 18.3546 17.6348 17.25 17.6348Z" stroke="white" stroke-linecap="round" stroke-linejoin="round"/>
<path d="M10.25 6.38477C9.14543 6.38477 8.25 5.48934 8.25 4.38477C8.25 3.2802 9.14543 2.38477 10.25 2.38477C11.3546 2.38477 12.25 3.2802 12.25 4.38477C12.25 5.48934 11.3546 6.38477 10.25 6.38477Z" stroke="white" stroke-linecap="round" stroke-linejoin="round"/>
<path d="M3.25 6.38477C2.14543 6.38477 1.25 5.48934 1.25 4.38477C1.25 3.2802 2.14543 2.38477 3.25 2.38477C4.35457 2.38477 5.25 3.2802 5.25 4.38477C5.25 5.48934 4.35457 6.38477 3.25 6.38477Z" stroke="white" stroke-linecap="round" stroke-linejoin="round"/>
<path d="M10.25 17.6348C9.14543 17.6348 8.25 16.7393 8.25 15.6348C8.25 14.5302 9.14543 13.6348 10.25 13.6348C11.3546 13.6348 12.25 14.5302 12.25 15.6348C12.25 16.7393 11.3546 17.6348 10.25 17.6348Z" stroke="white" stroke-linecap="round" stroke-linejoin="round"/>
</g>
<defs>
<clipPath id="clip0_116_7028">
<rect width="20" height="20" fill="white" transform="matrix(1.19249e-08 -1 -1 -1.19249e-08 20.25 20.0098)"/>
</clipPath>
</defs>
</svg>
