<svg width="1440" height="899" viewBox="0 0 1440 899" fill="none" xmlns="http://www.w3.org/2000/svg">
<g filter="url(#filter0_f_0_1)">
<path d="M783.5 472.923C783.5 591.834 642.801 637 483.772 637C324.743 637 178.5 591.834 178.5 472.923C178.5 354.012 324.743 286 483.772 286C642.801 286 783.5 354.012 783.5 472.923Z" fill="#4C81D0"/>
</g>
<g filter="url(#filter1_b_0_1)">
<path d="M697.696 476.157C698.266 476.618 699.122 476.328 699.296 475.616L725.816 366.94C725.833 366.873 725.856 366.807 725.886 366.745L729.374 359.48C729.693 358.816 729.209 358.047 728.473 358.047H212.189C211.453 358.047 210.969 358.816 211.288 359.48L214.776 366.745C214.806 366.807 214.829 366.873 214.846 366.94L241.367 475.616C241.54 476.328 242.396 476.618 242.966 476.157L259.528 462.791C260.03 462.386 260.778 462.555 261.057 463.136L287.567 518.35C287.597 518.412 287.62 518.478 287.637 518.545L314.865 630.118C314.89 630.221 314.931 630.319 314.987 630.409L355.457 695.548C355.486 695.595 355.51 695.643 355.531 695.694L396.909 795.779C397.165 796.396 397.942 796.594 398.461 796.175L413.691 783.884C414.193 783.479 414.941 783.648 415.221 784.23L469.43 897.132C469.793 897.888 470.87 897.888 471.233 897.132L525.442 784.23C525.721 783.648 526.469 783.479 526.971 783.885L542.014 796.025C542.584 796.486 543.439 796.196 543.613 795.484L567.96 695.72C567.977 695.652 568 695.586 568.03 695.524L606.184 616.056C606.463 615.475 607.211 615.306 607.713 615.711L624.533 629.284C625.104 629.744 625.959 629.455 626.133 628.743L653.025 518.547C653.042 518.48 653.065 518.414 653.095 518.352L679.605 463.136C679.884 462.555 680.633 462.386 681.135 462.791L697.696 476.157Z" fill="#10152F" fill-opacity="0.1"/>
<path d="M355.032 695.812L355.457 695.548L355.032 695.812C355.046 695.835 355.059 695.86 355.069 695.885L355.531 695.694L355.069 695.885L396.447 795.97C396.83 796.896 397.996 797.193 398.775 796.564L414.005 784.274C414.256 784.071 414.63 784.155 414.77 784.446L468.979 897.348C469.524 898.483 471.139 898.483 471.683 897.348L525.892 784.446C526.032 784.156 526.406 784.071 526.657 784.274L541.7 796.414C542.555 797.105 543.838 796.671 544.099 795.603L568.446 695.838C568.454 695.804 568.466 695.772 568.481 695.74L606.634 616.272C606.774 615.982 607.148 615.897 607.399 616.1L624.219 629.673C625.075 630.364 626.358 629.93 626.619 628.862L653.511 518.666C653.516 518.645 653.523 518.624 653.531 518.603C653.535 518.591 653.541 518.58 653.546 518.568L680.056 463.353C680.195 463.062 680.57 462.977 680.821 463.18L697.382 476.547C698.238 477.237 699.521 476.803 699.781 475.735L726.302 367.059C726.31 367.025 726.322 366.992 726.337 366.961L725.886 366.745L726.337 366.961L729.825 359.696C730.303 358.7 729.577 357.547 728.473 357.547H212.189C211.085 357.547 210.359 358.7 210.837 359.696L214.325 366.961C214.34 366.992 214.352 367.025 214.36 367.059L240.881 475.735C241.141 476.803 242.425 477.237 243.28 476.547L259.842 463.18C260.093 462.977 260.467 463.062 260.607 463.353L287.116 518.566C287.131 518.597 287.143 518.63 287.151 518.664L314.379 630.237C314.417 630.391 314.479 630.538 314.562 630.673L355.032 695.812Z" stroke="url(#paint0_linear_0_1)"/>
</g>
<g filter="url(#filter2_b_0_1)">
<path d="M729.955 358.047C730.02 358.047 730.08 358.01 730.109 357.951C730.141 357.885 730.128 357.806 730.076 357.755L728.873 356.552L573.396 161.292C573.003 160.798 572.257 160.787 571.85 161.269L555.037 181.185C554.659 181.632 553.98 181.661 553.566 181.247L471.038 98.7169C470.648 98.3264 470.014 98.3264 469.624 98.7169L332.614 235.727C332.206 236.135 331.538 236.114 331.156 235.681L317.771 220.497C317.355 220.025 316.611 220.05 316.228 220.549L211.609 356.734L210.586 357.755C210.535 357.806 210.521 357.885 210.553 357.951C210.582 358.01 210.642 358.047 210.707 358.047H729.955Z" fill="#10152F" fill-opacity="0.3"/>
<path d="M729.955 358.547C730.212 358.547 730.447 358.4 730.559 358.169C730.684 357.911 730.632 357.603 730.429 357.401L729.247 356.218L573.787 160.98C573.198 160.24 572.078 160.224 571.468 160.947L554.655 180.862C554.466 181.086 554.126 181.1 553.919 180.893L471.392 98.3634C470.806 97.7775 469.856 97.7775 469.27 98.3633L332.26 235.374C332.056 235.578 331.722 235.567 331.531 235.351L318.146 220.166C317.522 219.458 316.406 219.495 315.831 220.244L211.232 356.404L210.233 357.401C210.031 357.603 209.978 357.911 210.103 358.169L210.103 358.169C210.215 358.4 210.45 358.547 210.707 358.547H729.955Z" stroke="url(#paint1_linear_0_1)"/>
</g>
<g filter="url(#filter3_b_0_1)">
<path d="M462.447 232.465C463.282 232.117 464.113 232.968 463.745 233.795L409.081 356.641C408.787 357.302 409.271 358.047 409.995 358.047H729.955C730.02 358.047 730.08 358.01 730.109 357.951C730.141 357.885 730.127 357.806 730.076 357.755L728.873 356.552L573.396 161.292C573.003 160.798 572.257 160.787 571.85 161.269L555.037 181.185C554.659 181.632 553.98 181.661 553.566 181.247L471.468 99.1465C470.944 98.6226 470.052 98.8303 469.814 99.5318L419.109 248.722C418.832 249.538 419.646 250.298 420.441 249.967L462.447 232.465Z" fill="#10152F" fill-opacity="0.3"/>
<path d="M729.722 358.108C729.721 358.107 729.721 358.106 729.72 358.106L729.722 358.108L729.783 358.047L729.722 358.108ZM462.639 232.927C463.057 232.753 463.472 233.178 463.288 233.592L408.624 356.437C408.183 357.429 408.909 358.547 409.995 358.547H729.955C730.212 358.547 730.447 358.4 730.559 358.168C730.684 357.911 730.632 357.603 730.429 357.401L729.247 356.218L573.787 160.98C573.198 160.24 572.078 160.224 571.468 160.947L554.655 180.862C554.466 181.086 554.126 181.1 553.919 180.893L471.821 98.7929C471.035 98.0071 469.698 98.3187 469.34 99.3709L418.636 248.562C418.221 249.784 419.441 250.926 420.633 250.429L462.639 232.927Z" stroke="url(#paint2_linear_0_1)"/>
</g>
<g filter="url(#filter4_b_0_1)">
<path d="M465.792 232.803C465.327 232.211 464.399 232.327 464.092 233.015L409.081 356.641C408.787 357.303 409.271 358.048 409.995 358.048H562.191C563.025 358.048 563.493 357.086 562.977 356.43L465.792 232.803Z" fill="url(#paint3_linear_0_1)" fill-opacity="0.8"/>
</g>
<g filter="url(#filter5_b_0_1)">
<path d="M471.685 99.3639L471.468 99.1465C470.944 98.6226 470.052 98.8304 469.814 99.5318L469.575 100.235L449.442 159.477C449.332 159.8 449.395 160.158 449.608 160.424L607.76 357.673C607.95 357.91 608.237 358.047 608.54 358.047H675.813C676.651 358.047 677.117 357.079 676.595 356.424L471.685 99.3639Z" fill="url(#paint4_linear_0_1)" fill-opacity="0.8"/>
</g>
<g filter="url(#filter6_b_0_1)">
<path d="M471.09 892.927C470.95 894.052 472.493 894.506 472.984 893.484L525.441 784.23C525.721 783.648 526.469 783.479 526.971 783.885L542.013 796.025C542.584 796.486 543.439 796.196 543.613 795.484L567.96 695.72C567.976 695.652 568 695.586 568.03 695.524L606.183 616.056C606.462 615.475 607.211 615.306 607.713 615.711L624.533 629.284C625.103 629.744 625.959 629.455 626.133 628.743L653.025 518.547C653.041 518.48 653.065 518.414 653.095 518.352L679.605 463.136C679.884 462.555 680.632 462.386 681.134 462.791L697.696 476.157C698.266 476.618 699.122 476.328 699.295 475.616L725.816 366.94C725.833 366.873 725.856 366.807 725.886 366.745L729.374 359.48C729.693 358.816 729.209 358.047 728.472 358.047H538.743C538.238 358.047 537.813 358.423 537.75 358.923L471.09 892.927Z" fill="url(#paint5_linear_0_1)" fill-opacity="0.8"/>
</g>
<g filter="url(#filter7_b_0_1)">
<path d="M402.387 452.127L432.182 391.364C432.507 390.7 432.024 389.924 431.284 389.924H412.54C412.027 389.924 411.596 389.534 411.545 389.023L408.565 359.146C408.506 358.558 408.969 358.047 409.56 358.047H495.449C496.043 358.047 496.506 358.562 496.444 359.152L464.34 662.066C464.225 663.158 462.688 663.292 462.385 662.236L402.323 452.843C402.255 452.605 402.278 452.35 402.387 452.127Z" fill="url(#paint6_linear_0_1)" fill-opacity="0.8"/>
</g>
<g filter="url(#filter8_b_0_1)">
<path d="M314.185 627.333C314.369 628.089 315.397 628.202 315.74 627.505L432.177 391.366C432.504 390.701 432.021 389.924 431.28 389.924H408.694C408.284 389.924 407.915 390.174 407.764 390.556L314.22 626.83C314.157 626.99 314.144 627.166 314.185 627.333Z" fill="url(#paint7_linear_0_1)" fill-opacity="0.8"/>
</g>
<g filter="url(#filter9_b_0_1)">
<path d="M212.189 358.047C211.453 358.047 210.969 358.816 211.288 359.48L214.776 366.745C214.806 366.807 214.829 366.873 214.846 366.94L241.367 475.616C241.54 476.328 242.396 476.618 242.966 476.157L260.511 461.998L309.714 418.164C310.449 417.509 311.588 418.198 311.349 419.153L286.987 516.609C286.93 516.835 286.954 517.074 287.055 517.285L287.567 518.35C287.597 518.412 287.62 518.478 287.637 518.545L294.919 548.388C295.132 549.261 296.299 549.432 296.753 548.657L407.573 359.552C407.964 358.886 407.483 358.047 406.71 358.047H212.189Z" fill="url(#paint8_linear_0_1)" fill-opacity="0.8"/>
</g>
<path opacity="0.2" fill-rule="evenodd" clip-rule="evenodd" d="M114.583 374.056C154.541 374.618 195.709 367.875 235.667 365.628C275.624 363.38 316.792 365.628 356.75 366.19C396.707 366.752 437.876 365.628 477.833 363.38C517.791 361.133 558.959 357.762 598.917 359.447C638.874 361.133 680.042 367.875 720 372.37C759.957 376.865 801.126 379.113 841.083 380.236C881.041 381.36 922.209 381.36 962.167 379.675C1002.12 377.989 1043.29 374.618 1083.25 370.123C1123.21 365.628 1164.38 360.009 1204.33 358.886C1244.29 357.762 1285.46 361.133 1325.42 361.133C1398.4 361.133 1428.73 355.384 1446.5 351.02H1425.92C1406.54 351.02 1365.37 351.02 1325.42 351.02C1285.46 351.02 1244.29 351.02 1204.33 351.02C1164.38 351.02 1123.21 351.02 1083.25 351.02C1043.29 351.02 1002.12 351.02 962.167 351.02C922.209 351.02 881.041 351.02 841.083 351.02C801.126 351.02 759.957 351.02 720 351.02C680.042 351.02 638.874 351.02 598.917 351.02C558.959 351.02 517.791 351.02 477.833 351.02C437.876 351.02 396.707 351.02 356.75 351.02C316.792 351.02 275.624 351.02 235.667 351.02C195.709 351.02 154.541 351.02 114.583 351.02C74.6258 351.02 33.4575 351.02 14.0842 351.02H-6.5C4.63373 356.794 19.1443 372.714 114.583 374.056Z" fill="url(#paint9_linear_0_1)"/>
<g filter="url(#filter10_b_0_1)">
<rect x="246" y="98" width="70" height="70" rx="35" fill="#10152F" fill-opacity="0.6"/>
<path fill-rule="evenodd" clip-rule="evenodd" d="M276.389 119.703C277.97 118.071 280.17 117.061 282.601 117.061C285.842 117.061 288.651 118.846 290.164 121.505C291.506 120.91 292.96 120.603 294.431 120.604C300.265 120.604 305 125.333 305 131.168C305 137.003 300.265 141.732 294.431 141.732C293.718 141.732 293.023 141.661 292.342 141.527C291.019 143.865 288.489 145.453 285.608 145.453C284.435 145.455 283.277 145.192 282.223 144.682C280.882 147.805 277.758 150 274.121 150C270.322 150 267.099 147.627 265.856 144.29C265.303 144.405 264.74 144.463 264.174 144.463C259.655 144.463 256 140.787 256 136.272C256 133.238 257.646 130.597 260.087 129.17C259.569 127.987 259.303 126.711 259.304 125.422C259.304 120.211 263.571 116 268.829 116C271.908 116 274.663 117.454 276.391 119.712" fill="url(#paint10_linear_0_1)"/>
</g>
<g filter="url(#filter11_b_0_1)">
<rect x="723.5" y="104.02" width="70" height="70" rx="35" fill="#10152F" fill-opacity="0.9"/>
<path fill-rule="evenodd" clip-rule="evenodd" d="M763.784 118.096L740.101 119.882C738.184 120.02 737.5 121.325 737.5 122.836V148.938C737.5 150.106 737.911 151.136 738.937 152.441L744.482 159.723C745.371 160.89 746.261 161.165 747.972 161.028L775.488 159.379C777.816 159.242 778.5 158.143 778.5 156.288V126.889C778.5 125.927 778.158 125.652 776.994 124.828C776.926 124.759 776.857 124.759 776.789 124.691L769.26 119.401C767.48 118.028 766.727 117.89 763.784 118.096ZM748.588 126.408C746.33 126.545 745.851 126.614 744.55 125.515L741.333 122.973C740.991 122.63 741.128 122.218 742.018 122.149L764.811 120.501C766.727 120.363 767.685 120.981 768.438 121.6L772.34 124.416C772.545 124.485 772.956 124.965 772.408 124.965L748.862 126.408H748.588ZM745.987 156.013V131.079C745.987 129.98 746.33 129.499 747.288 129.43L774.325 127.85C775.215 127.782 775.625 128.331 775.625 129.43V154.159C775.625 155.258 775.42 156.151 773.982 156.219L748.109 157.731C746.672 157.868 745.987 157.318 745.987 156.013ZM771.518 132.453C771.655 133.208 771.518 133.964 770.765 134.032L769.533 134.307V152.716C768.438 153.334 767.48 153.609 766.659 153.609C765.358 153.609 765.016 153.197 763.989 151.961L755.775 139.047V151.48L758.376 152.098C758.376 152.098 758.376 153.609 756.323 153.609L750.573 153.953C750.437 153.609 750.573 152.785 751.121 152.647L752.627 152.235V135.75L750.573 135.544C750.437 134.788 750.847 133.689 752.011 133.62L758.171 133.208L766.659 146.259V134.719L764.468 134.445C764.331 133.552 764.947 132.865 765.769 132.796L771.518 132.453Z" fill="url(#paint11_linear_0_1)"/>
</g>
<g filter="url(#filter12_b_0_1)">
<rect x="615" y="58.0195" width="70" height="70" rx="35" fill="#10152F"/>
<g clip-path="url(#clip0_0_1)">
<path d="M649.5 117.02C662.479 117.02 673 106.498 673 93.5195C673 80.5408 662.479 70.0195 649.5 70.0195C636.521 70.0195 626 80.5408 626 93.5195C626 106.498 636.521 117.02 649.5 117.02Z" fill="url(#paint12_linear_0_1)"/>
<path d="M632.528 93.5198C632.528 95.9436 633.491 98.2681 635.204 99.982C636.918 101.696 639.243 102.659 641.667 102.659H642.972V99.2643H641.667C640.143 99.2643 638.682 98.659 637.605 97.5817C636.527 96.5045 635.922 95.0433 635.922 93.5198C635.922 91.9963 636.527 90.5352 637.605 89.4579C638.682 88.3806 640.143 87.7754 641.667 87.7754H644.8V105.531C644.8 105.977 644.888 106.418 645.058 106.83C645.229 107.242 645.479 107.616 645.794 107.931C646.109 108.246 646.484 108.496 646.895 108.667C647.307 108.838 647.749 108.925 648.194 108.925V84.3809H641.667C639.243 84.3809 636.918 85.3438 635.204 87.0576C633.491 88.7715 632.528 91.096 632.528 93.5198ZM657.333 84.3809H656.028V87.7754H657.333C658.857 87.7754 660.318 88.3806 661.395 89.4579C662.473 90.5352 663.078 91.9963 663.078 93.5198C663.078 95.0433 662.473 96.5045 661.395 97.5817C660.318 98.659 658.857 99.2643 657.333 99.2643H654.2V81.5087C654.2 80.6084 653.842 79.745 653.206 79.1085C652.569 78.4719 651.706 78.1143 650.806 78.1143V102.659H657.333C658.533 102.659 659.722 102.422 660.831 101.963C661.939 101.504 662.947 100.831 663.795 99.982C664.644 99.1334 665.317 98.1259 665.777 97.0171C666.236 95.9083 666.472 94.7199 666.472 93.5198C666.472 92.3197 666.236 91.1313 665.777 90.0225C665.317 88.9137 664.644 87.9063 663.795 87.0576C662.947 86.209 661.939 85.5359 660.831 85.0766C659.722 84.6173 658.533 84.3809 657.333 84.3809Z" fill="#080A1E"/>
</g>
</g>
<g filter="url(#filter13_b_0_1)">
<rect x="179" y="182" width="70" height="70" rx="35" fill="#10152F" fill-opacity="0.1"/>
<path d="M224.807 209.192V204.462C225.467 204.199 225.994 203.673 226.39 203.148C226.786 202.622 227.049 201.834 227.049 201.177V201.045C227.049 199.074 225.335 197.366 223.225 197.366H223.093C220.983 197.366 219.268 198.943 219.268 201.045V201.177C219.268 201.834 219.532 202.491 219.928 203.148C220.323 203.673 220.851 204.199 221.51 204.462V209.192C219.664 209.455 217.818 210.244 216.367 211.295L202.651 201.177C202.783 200.782 202.783 200.519 202.783 200.125C202.783 199.337 202.519 198.548 201.992 197.891C201.464 197.234 200.805 196.709 200.014 196.314C199.222 196.052 198.299 195.92 197.508 196.052C196.716 196.183 195.925 196.577 195.266 197.234C194.606 197.76 194.211 198.548 194.079 199.337C193.947 200.125 193.947 200.914 194.343 201.702C194.606 202.491 195.266 203.148 195.925 203.542C196.585 203.936 197.508 204.199 198.299 204.199C199.09 204.199 199.75 204.068 200.409 203.673L213.861 213.66C211.355 217.208 211.487 221.808 213.993 225.356L209.905 229.298C209.509 229.167 209.245 229.167 208.85 229.167C206.871 229.167 205.289 230.744 205.289 232.583C205.289 234.423 206.871 236 208.85 236C210.828 236 212.41 234.554 212.41 232.583C212.41 232.189 212.411 231.926 212.279 231.663L216.367 227.853C219.928 230.481 224.939 230.744 228.896 228.378C232.72 226.013 234.698 221.676 233.775 217.471C232.852 213.135 229.291 209.85 224.807 209.192ZM223.093 224.83C222.302 224.83 221.642 224.699 220.851 224.436C220.192 224.173 219.532 223.779 219.005 223.253C218.477 222.728 218.081 222.202 217.686 221.545C217.422 220.888 217.29 220.231 217.29 219.442C217.29 218.785 217.422 217.997 217.686 217.34C217.95 216.683 218.345 216.026 219.005 215.632C219.532 215.106 220.192 214.712 220.851 214.449C221.51 214.186 222.302 214.055 223.093 214.055C226.126 214.186 228.5 216.551 228.5 219.442C228.5 222.333 226.126 224.699 223.093 224.83Z" fill="white"/>
</g>
<g filter="url(#filter14_b_0_1)">
<rect x="120" y="70" width="70" height="70" rx="35" fill="#10152F" fill-opacity="0.4"/>
<path fill-rule="evenodd" clip-rule="evenodd" d="M154.721 94.4511C155.623 93.4503 157.491 92 160.72 92C166.269 92 170 96.3531 170 102.833C170 109.211 166.069 113.664 160.45 113.664C157.771 113.664 156.055 112.527 155.158 111.704C155.164 111.899 155.169 112.118 155.169 112.351V121H149.42V97.9561C149.42 97.621 149.312 97.5151 148.977 97.5151H147V92.4686H151.824C154.044 92.4686 154.613 93.5882 154.721 94.4511ZM159.629 97.0867C157.417 97.0867 155.052 98.6261 155.052 102.949C155.052 105.695 156.458 108.657 159.553 108.657C161.848 108.657 164.169 106.883 164.169 102.909C164.169 99.4255 162.345 97.0867 159.629 97.0867Z" fill="white"/>
</g>
<g filter="url(#filter15_b_0_1)">
<rect x="374" width="70" height="70" rx="35" fill="#10152F" fill-opacity="0.8"/>
<path d="M396.69 25.12V30.82C398.42 25.62 403.27 21.75 409 21.75C412.23 21.75 415.13 22.86 417.41 25.04L423.72 18.73C419.91 15.18 414.93 13 409 13C400.4 13 392.96 17.93 389.34 25.12H396.69Z" fill="url(#paint13_linear_0_1)"/>
<path d="M396.69 30.82V25.12H389.34L396.69 30.82Z" fill="url(#paint14_linear_0_1)"/>
<path d="M389.34 39.18H396.69C396.25 37.86 396 36.45 396 35C396 33.55 396.25 32.14 396.69 30.82L389.34 25.12C387.803 28.1805 387.001 31.5578 387 34.9826C387 34.9884 387 34.9942 387 35C387 38.55 387.85 41.91 389.34 44.88V39.18Z" fill="url(#paint15_linear_0_1)"/>
<path d="M416.45 51.67V46.15C414.48 47.47 411.96 48.25 409 48.25C403.27 48.25 398.42 44.38 396.69 39.18L389.34 44.88C392.96 52.07 400.4 57 409 57C414.94 57 419.92 55.03 423.56 51.67H416.45Z" fill="url(#paint16_linear_0_1)"/>
<path d="M396.69 39.18H389.34V44.88L396.69 39.18Z" fill="url(#paint17_linear_0_1)"/>
<path d="M430.12 35.5C430.12 33.94 429.98 32.44 429.72 31H409V39.51H420.84C420.33 42.26 418.78 44.59 416.45 46.15L423.56 51.67C427.72 47.84 430.12 42.2 430.12 35.5Z" fill="url(#paint18_linear_0_1)"/>
<path d="M416.45 46.15V51.67H423.56L416.45 46.15Z" fill="url(#paint19_linear_0_1)"/>
</g>
<g filter="url(#filter16_b_0_1)">
<rect x="124.5" y="603.02" width="70" height="70" rx="35" fill="#10152F" fill-opacity="0.1"/>
<path fill-rule="evenodd" clip-rule="evenodd" d="M180.323 640.76C180.44 639.863 180.5 638.948 180.5 638.02C180.5 626.422 171.098 617.02 159.5 617.02C153.784 617.02 148.601 619.303 144.814 623.009C145.78 622.936 146.756 622.9 147.74 622.9C161.431 622.9 173.459 630.02 180.323 640.76ZM178.26 647.467C172.936 635.939 161.272 627.94 147.74 627.94C145.32 627.94 142.96 628.195 140.685 628.681C139.287 631.494 138.5 634.665 138.5 638.02C138.5 638.643 138.527 639.26 138.58 639.87C141.396 638.678 144.491 638.02 147.74 638.02C158.774 638.02 168.033 645.618 170.571 655.867C173.844 653.833 176.516 650.924 178.26 647.467ZM165.887 658.031C164.248 649.502 156.746 643.06 147.74 643.06C144.842 643.06 142.1 643.727 139.659 644.916C142.512 653.126 150.318 659.02 159.5 659.02C161.727 659.02 163.873 658.673 165.887 658.031Z" fill="url(#paint20_linear_0_1)"/>
</g>
<g filter="url(#filter17_b_0_1)">
<rect x="716.5" y="624" width="70" height="70" rx="35" fill="#10152F" fill-opacity="0.1"/>
<path fill-rule="evenodd" clip-rule="evenodd" d="M756.225 653.366L751.5 639L746.775 653.366L751.5 658.091L756.225 653.366ZM758.134 655.275L753.409 660L758.134 664.725L772.5 660L758.134 655.275ZM756.225 666.634L751.5 661.909L746.775 666.634L751.5 681L756.225 666.634ZM744.866 664.725L749.591 660L744.866 655.275L730.5 660L744.866 664.725Z" fill="url(#paint21_linear_0_1)"/>
<path d="M761.4 651.9C761.875 651.9 762.339 651.759 762.733 651.495C763.128 651.231 763.436 650.857 763.617 650.418C763.799 649.98 763.846 649.497 763.754 649.031C763.661 648.566 763.433 648.138 763.097 647.803C762.761 647.467 762.334 647.238 761.868 647.146C761.403 647.053 760.92 647.101 760.481 647.282C760.043 647.464 759.668 647.772 759.404 648.166C759.141 648.561 759 649.025 759 649.5L761.4 649.5L761.4 651.9Z" fill="url(#paint22_linear_0_1)"/>
</g>
<g filter="url(#filter18_b_0_1)">
<rect x="256.5" y="761.02" width="70" height="70" rx="35" fill="#10152F" fill-opacity="0.1"/>
<path d="M269.713 811.16L279.695 780.02H292.407L302.73 811.16H294.54L286.52 785.565L288.781 786.418H283.151L285.454 785.565L277.648 811.16H269.713ZM277.861 803.95L280.25 797.466L286.158 802.865L292.066 797.466L294.455 803.95L286.158 811.16L277.861 803.95Z" fill="url(#paint23_linear_0_1)"/>
<path d="M313.955 811.16L303.632 780.02H295.441L305.765 811.16H313.955Z" fill="url(#paint24_linear_0_1)"/>
</g>
<g filter="url(#filter19_b_0_1)">
<rect x="286.5" y="640" width="70" height="70" rx="35" fill="#10152F" fill-opacity="0.1"/>
<path d="M305.5 690C305.5 673.462 310.563 655.271 323.429 676.814C333.145 693.083 334.536 663 341.5 663" stroke="url(#paint25_linear_0_1)" stroke-width="6" stroke-linecap="round"/>
</g>
<g filter="url(#filter20_b_0_1)">
<rect x="225.5" y="524" width="70" height="70" rx="35" fill="#10152F" fill-opacity="0.1"/>
<path d="M239.5 547H260.74L253.081 551.944C247.472 555.564 247.472 563.436 253.081 567.056L260.74 572H239.5V547Z" fill="url(#paint26_linear_0_1)"/>
<path d="M268.574 572C266.325 572 264.394 571.621 262.781 570.864C261.168 570.106 259.85 569.121 258.828 567.909C257.829 566.697 257.09 565.377 256.613 563.948C256.136 562.519 255.898 561.145 255.898 559.825V559.11C255.898 557.639 256.136 556.188 256.613 554.76C257.113 553.331 257.874 552.032 258.896 550.864C259.919 549.695 261.213 548.764 262.781 548.071C264.371 547.357 266.245 547 268.403 547C270.652 547 272.606 547.39 274.264 548.169C275.945 548.926 277.286 550.009 278.285 551.416C279.285 552.801 279.887 554.424 280.091 556.286H275.218C275.037 555.203 274.628 554.294 273.992 553.558C273.378 552.801 272.595 552.238 271.64 551.87C270.686 551.481 269.607 551.286 268.403 551.286C267.177 551.286 266.086 551.491 265.132 551.903C264.178 552.292 263.383 552.855 262.747 553.591C262.111 554.327 261.622 555.193 261.282 556.188C260.964 557.184 260.805 558.288 260.805 559.5C260.805 560.669 260.964 561.751 261.282 562.747C261.622 563.742 262.122 564.619 262.781 565.377C263.44 566.113 264.246 566.686 265.2 567.097C266.177 567.509 267.302 567.714 268.574 567.714C270.436 567.714 272.004 567.281 273.276 566.416C274.571 565.528 275.355 564.294 275.627 562.714H280.5C280.273 564.403 279.671 565.95 278.694 567.357C277.717 568.764 276.377 569.89 274.673 570.734C272.969 571.578 270.936 572 268.574 572Z" fill="url(#paint27_linear_0_1)"/>
</g>
<g filter="url(#filter21_b_0_1)">
<rect x="726.5" y="749" width="70" height="70" rx="35" fill="#10152F" fill-opacity="0.1"/>
<path d="M773.7 795.875C773.7 797.187 772.625 798.25 771.3 798.25C769.975 798.25 768.9 797.187 768.9 795.875C768.9 794.563 769.975 793.5 771.3 793.5C772.625 793.5 773.7 794.563 773.7 795.875Z" fill="url(#paint28_linear_0_1)"/>
<path fill-rule="evenodd" clip-rule="evenodd" d="M776.1 800.625V765H778.5V801.812C778.5 802.468 777.963 803 777.3 803H742.5V800.625H776.1Z" fill="url(#paint29_linear_0_1)"/>
<path fill-rule="evenodd" clip-rule="evenodd" d="M751.305 790.429C750.868 791.773 750.415 793.1 749.947 794.412L748.635 798.25H742.5C743.718 794.699 744.873 791.421 745.966 788.414C747.059 785.407 748.12 782.561 749.151 779.874C750.212 777.187 751.258 774.628 752.289 772.197C753.319 769.766 754.381 767.367 755.473 765H761.047C762.14 767.367 763.201 769.766 764.232 772.197C765.262 774.628 766.292 777.187 767.323 779.874C768.384 782.561 769.462 785.407 770.555 788.414C770.801 789.073 771.049 789.745 771.3 790.429H751.305ZM755.661 777.619C756.598 775.188 757.425 773.125 758.143 771.429C758.83 773.061 759.642 775.108 760.579 777.571C761.515 780.034 762.483 782.689 763.482 785.535H752.804C753.803 782.689 754.755 780.05 755.661 777.619Z" fill="url(#paint30_linear_0_1)"/>
</g>
<g filter="url(#filter22_b_0_1)">
<rect x="575.5" y="594" width="70" height="70" rx="35" fill="#10152F" fill-opacity="0.1"/>
<path fill-rule="evenodd" clip-rule="evenodd" d="M610.5 649.6C622.098 649.6 631.5 640.198 631.5 628.6C631.5 618.405 624.235 609.907 614.6 608L610.5 612.1L606.4 608C596.765 609.907 589.5 618.405 589.5 628.6C589.5 640.198 598.902 649.6 610.5 649.6ZM613.477 624.226V634H615.979V628.258C615.979 627.622 616.165 627.118 616.537 626.746C616.921 626.362 617.419 626.17 618.031 626.17C618.631 626.17 619.099 626.356 619.435 626.728C619.783 627.1 619.957 627.586 619.957 628.186V634H622.459V628.402C622.459 626.914 622.159 625.798 621.559 625.054C620.959 624.298 620.077 623.92 618.913 623.92H618.805C618.025 623.92 617.371 624.088 616.843 624.424C616.327 624.76 615.937 625.264 615.673 625.936C615.587 626.151 615.515 626.384 615.457 626.635V624.226H613.477ZM608.247 634V631.12H611.055V634H608.247ZM599.3 633.46C600.068 634.024 601.124 634.306 602.468 634.306C603.332 634.306 604.082 634.174 604.718 633.91C605.354 633.646 605.846 633.28 606.194 632.812C606.554 632.332 606.734 631.768 606.734 631.12C606.734 630.244 606.404 629.548 605.744 629.032C605.096 628.516 604.196 628.198 603.044 628.078L602.18 627.988C601.652 627.928 601.268 627.814 601.028 627.646C600.8 627.478 600.686 627.238 600.686 626.926C600.686 626.602 600.83 626.338 601.118 626.134C601.406 625.93 601.814 625.828 602.342 625.828C602.93 625.828 603.38 625.948 603.692 626.188C604.004 626.428 604.172 626.716 604.196 627.052H606.446C606.41 626.032 606.02 625.258 605.276 624.73C604.532 624.202 603.56 623.938 602.36 623.938C601.592 623.938 600.908 624.058 600.308 624.298C599.72 624.526 599.258 624.868 598.922 625.324C598.586 625.78 598.418 626.344 598.418 627.016C598.418 627.856 598.712 628.528 599.3 629.032C599.888 629.536 600.728 629.848 601.82 629.968L602.684 630.058C603.332 630.118 603.788 630.244 604.052 630.436C604.328 630.628 604.466 630.886 604.466 631.21C604.466 631.582 604.286 631.876 603.926 632.092C603.578 632.308 603.104 632.416 602.504 632.416C601.784 632.416 601.256 632.278 600.92 632.002C600.584 631.726 600.398 631.42 600.362 631.084H598.112C598.148 632.092 598.544 632.884 599.3 633.46Z" fill="url(#paint31_linear_0_1)"/>
</g>
<g filter="url(#filter23_b_0_1)">
<rect x="373.5" y="541" width="70" height="70" rx="35" fill="#10152F" fill-opacity="0.1"/>
<path d="M408.018 555.614C408.318 555.448 408.682 555.448 408.982 555.614L414.58 558.695C415.271 559.075 415.271 560.067 414.58 560.447L399.035 569.005C398.735 569.171 398.371 569.171 398.07 569.005L392.472 565.924C391.782 565.544 391.782 564.552 392.472 564.172L408.018 555.614Z" fill="url(#paint32_linear_0_1)"/>
<path d="M402.42 571.4C401.729 571.02 401.729 570.028 402.42 569.648L417.965 561.09C418.265 560.925 418.629 560.925 418.93 561.09L424.528 564.172C425.218 564.552 425.218 565.544 424.528 565.924L408.982 574.482C408.682 574.647 408.318 574.647 408.018 574.482L402.42 571.4Z" fill="url(#paint33_linear_0_1)"/>
<path d="M397.999 571.472C398.005 571.475 398.01 571.478 398.016 571.481C398.021 571.484 398.026 571.487 398.031 571.489L406.877 576.359C407.196 576.535 407.395 576.871 407.395 577.235V594.351C407.395 595.112 406.579 595.594 405.912 595.227L390.228 586.593C389.909 586.417 389.711 586.081 389.711 585.717V568.601C389.711 567.84 390.526 567.358 391.193 567.725L397.999 571.472Z" fill="url(#paint34_linear_0_1)"/>
<path fill-rule="evenodd" clip-rule="evenodd" d="M427.289 585.717C427.289 586.081 427.091 586.417 426.772 586.593L411.088 595.227C410.421 595.594 409.605 595.112 409.605 594.351V577.235C409.605 576.871 409.804 576.535 410.123 576.359L425.807 567.725C426.474 567.358 427.289 567.84 427.289 568.601V585.717ZM418.294 578.688C417.547 578.264 416.336 578.262 414.796 579.134C414.266 579.435 413.591 579.253 413.288 578.728C412.985 578.202 413.169 577.533 413.699 577.233C415.606 576.152 417.701 575.828 419.392 576.786C419.921 577.086 420.105 577.756 419.802 578.281C419.499 578.806 418.824 578.988 418.294 578.688ZM420.746 579.067C421.357 579.067 421.852 579.557 421.852 580.162V580.592C421.852 580.989 422.376 581.131 422.577 580.789C422.884 580.267 423.561 580.09 424.088 580.394C424.616 580.699 424.794 581.37 424.486 581.892L421.701 586.628C421.396 587.147 420.724 587.325 420.198 587.027L417.412 585.448C416.882 585.148 416.699 584.479 417.002 583.954C417.305 583.429 417.98 583.247 418.51 583.547C419.015 583.833 419.641 583.468 419.641 582.888V580.162C419.641 579.557 420.136 579.067 420.746 579.067Z" fill="url(#paint35_linear_0_1)"/>
<path fill-rule="evenodd" clip-rule="evenodd" d="M418.98 558.612L418.969 558.606L409.037 553.138L418.98 558.612ZM398.031 571.489L398.016 571.481L397.999 571.472C398.005 571.475 398.01 571.478 398.016 571.481C398.021 571.484 398.026 571.487 398.031 571.489Z" fill="url(#paint36_linear_0_1)"/>
</g>
<g filter="url(#filter24_b_0_1)">
<rect x="610.5" y="751.02" width="70" height="70" rx="35" fill="#10152F" fill-opacity="0.1"/>
<path fill-rule="evenodd" clip-rule="evenodd" d="M635.45 798.808C635.461 799.76 635.47 800.501 635.47 800.979C635.47 801.592 638.147 799.206 641.627 796.104C647.741 790.655 656.334 782.997 657.254 785.498C657.801 786.984 657.614 792.396 657.389 798.89C657.3 801.453 657.206 804.184 657.148 806.909C653.831 808.7 650.034 809.716 646 809.716C633.021 809.716 622.5 799.195 622.5 786.216C622.5 776.341 628.592 767.888 637.223 764.41C635.156 773.731 635.369 791.87 635.45 798.808ZM649.568 762.985C647.813 769.004 645.337 777.784 647.714 778.703C650.68 779.85 653.36 778.212 655.612 776.837C658.555 775.04 660.764 773.69 661.917 779.589C662.457 782.351 662.74 784.718 662.972 786.66C663.644 792.287 663.891 794.36 668.733 792.195C669.233 790.286 669.5 788.282 669.5 786.216C669.5 774.45 660.853 764.704 649.568 762.985Z" fill="url(#paint37_linear_0_1)"/>
</g>
<path opacity="0.2" d="M6.29158 351.11C3.46377 350.979 0.858914 350.974 -1.5 351.11H6.29158C51.5441 353.217 153.891 387.716 219.093 391.233C260.417 393.462 284.117 390.749 324.225 384.934C364.333 379.119 405.656 369.815 445.764 367.489C485.872 365.163 527.195 369.815 567.303 375.63C607.411 381.445 648.734 388.423 688.842 382.608C728.95 376.793 770.273 358.185 810.381 353.533C850.489 348.881 891.812 358.185 931.92 367.489C972.028 376.793 1013.35 386.097 1053.46 384.934C1093.57 383.771 1134.89 372.141 1175 368.652C1215.11 365.163 1256.43 369.815 1296.54 370.978C1395.43 373.846 1414.93 362.971 1451.5 351.11H6.29158Z" fill="url(#paint38_linear_0_1)"/>
<defs>
<filter id="filter0_f_0_1" x="-58.2223" y="49.2777" width="1078.44" height="824.445" filterUnits="userSpaceOnUse" color-interpolation-filters="sRGB">
<feFlood flood-opacity="0" result="BackgroundImageFix"/>
<feBlend mode="normal" in="SourceGraphic" in2="BackgroundImageFix" result="shape"/>
<feGaussianBlur stdDeviation="118.361" result="effect1_foregroundBlur_0_1"/>
</filter>
<filter id="filter1_b_0_1" x="-79.513" y="67.3469" width="1099.69" height="1121.05" filterUnits="userSpaceOnUse" color-interpolation-filters="sRGB">
<feFlood flood-opacity="0" result="BackgroundImageFix"/>
<feGaussianBlur in="BackgroundImageFix" stdDeviation="144.85"/>
<feComposite in2="SourceAlpha" operator="in" result="effect1_backgroundBlur_0_1"/>
<feBlend mode="normal" in="SourceGraphic" in2="effect1_backgroundBlur_0_1" result="shape"/>
</filter>
<filter id="filter2_b_0_1" x="-80.164" y="-192.276" width="1100.99" height="841.023" filterUnits="userSpaceOnUse" color-interpolation-filters="sRGB">
<feFlood flood-opacity="0" result="BackgroundImageFix"/>
<feGaussianBlur in="BackgroundImageFix" stdDeviation="144.85"/>
<feComposite in2="SourceAlpha" operator="in" result="effect1_backgroundBlur_0_1"/>
<feBlend mode="normal" in="SourceGraphic" in2="effect1_backgroundBlur_0_1" result="shape"/>
</filter>
<filter id="filter3_b_0_1" x="118.293" y="-191.847" width="902.534" height="840.594" filterUnits="userSpaceOnUse" color-interpolation-filters="sRGB">
<feFlood flood-opacity="0" result="BackgroundImageFix"/>
<feGaussianBlur in="BackgroundImageFix" stdDeviation="144.85"/>
<feComposite in2="SourceAlpha" operator="in" result="effect1_backgroundBlur_0_1"/>
<feBlend mode="normal" in="SourceGraphic" in2="effect1_backgroundBlur_0_1" result="shape"/>
</filter>
<filter id="filter4_b_0_1" x="391.194" y="214.621" width="189.799" height="161.227" filterUnits="userSpaceOnUse" color-interpolation-filters="sRGB">
<feFlood flood-opacity="0" result="BackgroundImageFix"/>
<feGaussianBlur in="BackgroundImageFix" stdDeviation="8.9"/>
<feComposite in2="SourceAlpha" operator="in" result="effect1_backgroundBlur_0_1"/>
<feBlend mode="normal" in="SourceGraphic" in2="effect1_backgroundBlur_0_1" result="shape"/>
</filter>
<filter id="filter5_b_0_1" x="431.589" y="81.0535" width="263.026" height="294.793" filterUnits="userSpaceOnUse" color-interpolation-filters="sRGB">
<feFlood flood-opacity="0" result="BackgroundImageFix"/>
<feGaussianBlur in="BackgroundImageFix" stdDeviation="8.9"/>
<feComposite in2="SourceAlpha" operator="in" result="effect1_backgroundBlur_0_1"/>
<feBlend mode="normal" in="SourceGraphic" in2="effect1_backgroundBlur_0_1" result="shape"/>
</filter>
<filter id="filter6_b_0_1" x="453.281" y="340.247" width="293.993" height="571.607" filterUnits="userSpaceOnUse" color-interpolation-filters="sRGB">
<feFlood flood-opacity="0" result="BackgroundImageFix"/>
<feGaussianBlur in="BackgroundImageFix" stdDeviation="8.9"/>
<feComposite in2="SourceAlpha" operator="in" result="effect1_backgroundBlur_0_1"/>
<feBlend mode="normal" in="SourceGraphic" in2="effect1_backgroundBlur_0_1" result="shape"/>
</filter>
<filter id="filter7_b_0_1" x="384.485" y="340.247" width="129.765" height="340.514" filterUnits="userSpaceOnUse" color-interpolation-filters="sRGB">
<feFlood flood-opacity="0" result="BackgroundImageFix"/>
<feGaussianBlur in="BackgroundImageFix" stdDeviation="8.9"/>
<feComposite in2="SourceAlpha" operator="in" result="effect1_backgroundBlur_0_1"/>
<feBlend mode="normal" in="SourceGraphic" in2="effect1_backgroundBlur_0_1" result="shape"/>
</filter>
<filter id="filter8_b_0_1" x="296.361" y="372.124" width="153.72" height="273.646" filterUnits="userSpaceOnUse" color-interpolation-filters="sRGB">
<feFlood flood-opacity="0" result="BackgroundImageFix"/>
<feGaussianBlur in="BackgroundImageFix" stdDeviation="8.9"/>
<feComposite in2="SourceAlpha" operator="in" result="effect1_backgroundBlur_0_1"/>
<feBlend mode="normal" in="SourceGraphic" in2="effect1_backgroundBlur_0_1" result="shape"/>
</filter>
<filter id="filter9_b_0_1" x="193.388" y="340.247" width="232.124" height="226.704" filterUnits="userSpaceOnUse" color-interpolation-filters="sRGB">
<feFlood flood-opacity="0" result="BackgroundImageFix"/>
<feGaussianBlur in="BackgroundImageFix" stdDeviation="8.9"/>
<feComposite in2="SourceAlpha" operator="in" result="effect1_backgroundBlur_0_1"/>
<feBlend mode="normal" in="SourceGraphic" in2="effect1_backgroundBlur_0_1" result="shape"/>
</filter>
<filter id="filter10_b_0_1" x="-43.7" y="-191.7" width="649.4" height="649.4" filterUnits="userSpaceOnUse" color-interpolation-filters="sRGB">
<feFlood flood-opacity="0" result="BackgroundImageFix"/>
<feGaussianBlur in="BackgroundImageFix" stdDeviation="144.85"/>
<feComposite in2="SourceAlpha" operator="in" result="effect1_backgroundBlur_0_1"/>
<feBlend mode="normal" in="SourceGraphic" in2="effect1_backgroundBlur_0_1" result="shape"/>
</filter>
<filter id="filter11_b_0_1" x="433.8" y="-185.68" width="649.4" height="649.4" filterUnits="userSpaceOnUse" color-interpolation-filters="sRGB">
<feFlood flood-opacity="0" result="BackgroundImageFix"/>
<feGaussianBlur in="BackgroundImageFix" stdDeviation="144.85"/>
<feComposite in2="SourceAlpha" operator="in" result="effect1_backgroundBlur_0_1"/>
<feBlend mode="normal" in="SourceGraphic" in2="effect1_backgroundBlur_0_1" result="shape"/>
</filter>
<filter id="filter12_b_0_1" x="325.3" y="-231.68" width="649.4" height="649.4" filterUnits="userSpaceOnUse" color-interpolation-filters="sRGB">
<feFlood flood-opacity="0" result="BackgroundImageFix"/>
<feGaussianBlur in="BackgroundImageFix" stdDeviation="144.85"/>
<feComposite in2="SourceAlpha" operator="in" result="effect1_backgroundBlur_0_1"/>
<feBlend mode="normal" in="SourceGraphic" in2="effect1_backgroundBlur_0_1" result="shape"/>
</filter>
<filter id="filter13_b_0_1" x="-110.7" y="-107.7" width="649.4" height="649.4" filterUnits="userSpaceOnUse" color-interpolation-filters="sRGB">
<feFlood flood-opacity="0" result="BackgroundImageFix"/>
<feGaussianBlur in="BackgroundImageFix" stdDeviation="144.85"/>
<feComposite in2="SourceAlpha" operator="in" result="effect1_backgroundBlur_0_1"/>
<feBlend mode="normal" in="SourceGraphic" in2="effect1_backgroundBlur_0_1" result="shape"/>
</filter>
<filter id="filter14_b_0_1" x="-169.7" y="-219.7" width="649.4" height="649.4" filterUnits="userSpaceOnUse" color-interpolation-filters="sRGB">
<feFlood flood-opacity="0" result="BackgroundImageFix"/>
<feGaussianBlur in="BackgroundImageFix" stdDeviation="144.85"/>
<feComposite in2="SourceAlpha" operator="in" result="effect1_backgroundBlur_0_1"/>
<feBlend mode="normal" in="SourceGraphic" in2="effect1_backgroundBlur_0_1" result="shape"/>
</filter>
<filter id="filter15_b_0_1" x="84.3" y="-289.7" width="649.4" height="649.4" filterUnits="userSpaceOnUse" color-interpolation-filters="sRGB">
<feFlood flood-opacity="0" result="BackgroundImageFix"/>
<feGaussianBlur in="BackgroundImageFix" stdDeviation="144.85"/>
<feComposite in2="SourceAlpha" operator="in" result="effect1_backgroundBlur_0_1"/>
<feBlend mode="normal" in="SourceGraphic" in2="effect1_backgroundBlur_0_1" result="shape"/>
</filter>
<filter id="filter16_b_0_1" x="-165.2" y="313.32" width="649.4" height="649.4" filterUnits="userSpaceOnUse" color-interpolation-filters="sRGB">
<feFlood flood-opacity="0" result="BackgroundImageFix"/>
<feGaussianBlur in="BackgroundImageFix" stdDeviation="144.85"/>
<feComposite in2="SourceAlpha" operator="in" result="effect1_backgroundBlur_0_1"/>
<feBlend mode="normal" in="SourceGraphic" in2="effect1_backgroundBlur_0_1" result="shape"/>
</filter>
<filter id="filter17_b_0_1" x="426.8" y="334.3" width="649.4" height="649.4" filterUnits="userSpaceOnUse" color-interpolation-filters="sRGB">
<feFlood flood-opacity="0" result="BackgroundImageFix"/>
<feGaussianBlur in="BackgroundImageFix" stdDeviation="144.85"/>
<feComposite in2="SourceAlpha" operator="in" result="effect1_backgroundBlur_0_1"/>
<feBlend mode="normal" in="SourceGraphic" in2="effect1_backgroundBlur_0_1" result="shape"/>
</filter>
<filter id="filter18_b_0_1" x="-33.2" y="471.32" width="649.4" height="649.4" filterUnits="userSpaceOnUse" color-interpolation-filters="sRGB">
<feFlood flood-opacity="0" result="BackgroundImageFix"/>
<feGaussianBlur in="BackgroundImageFix" stdDeviation="144.85"/>
<feComposite in2="SourceAlpha" operator="in" result="effect1_backgroundBlur_0_1"/>
<feBlend mode="normal" in="SourceGraphic" in2="effect1_backgroundBlur_0_1" result="shape"/>
</filter>
<filter id="filter19_b_0_1" x="-3.20001" y="350.3" width="649.4" height="649.4" filterUnits="userSpaceOnUse" color-interpolation-filters="sRGB">
<feFlood flood-opacity="0" result="BackgroundImageFix"/>
<feGaussianBlur in="BackgroundImageFix" stdDeviation="144.85"/>
<feComposite in2="SourceAlpha" operator="in" result="effect1_backgroundBlur_0_1"/>
<feBlend mode="normal" in="SourceGraphic" in2="effect1_backgroundBlur_0_1" result="shape"/>
</filter>
<filter id="filter20_b_0_1" x="-64.2" y="234.3" width="649.4" height="649.4" filterUnits="userSpaceOnUse" color-interpolation-filters="sRGB">
<feFlood flood-opacity="0" result="BackgroundImageFix"/>
<feGaussianBlur in="BackgroundImageFix" stdDeviation="144.85"/>
<feComposite in2="SourceAlpha" operator="in" result="effect1_backgroundBlur_0_1"/>
<feBlend mode="normal" in="SourceGraphic" in2="effect1_backgroundBlur_0_1" result="shape"/>
</filter>
<filter id="filter21_b_0_1" x="436.8" y="459.3" width="649.4" height="649.4" filterUnits="userSpaceOnUse" color-interpolation-filters="sRGB">
<feFlood flood-opacity="0" result="BackgroundImageFix"/>
<feGaussianBlur in="BackgroundImageFix" stdDeviation="144.85"/>
<feComposite in2="SourceAlpha" operator="in" result="effect1_backgroundBlur_0_1"/>
<feBlend mode="normal" in="SourceGraphic" in2="effect1_backgroundBlur_0_1" result="shape"/>
</filter>
<filter id="filter22_b_0_1" x="285.8" y="304.3" width="649.4" height="649.4" filterUnits="userSpaceOnUse" color-interpolation-filters="sRGB">
<feFlood flood-opacity="0" result="BackgroundImageFix"/>
<feGaussianBlur in="BackgroundImageFix" stdDeviation="144.85"/>
<feComposite in2="SourceAlpha" operator="in" result="effect1_backgroundBlur_0_1"/>
<feBlend mode="normal" in="SourceGraphic" in2="effect1_backgroundBlur_0_1" result="shape"/>
</filter>
<filter id="filter23_b_0_1" x="83.8" y="251.3" width="649.4" height="649.4" filterUnits="userSpaceOnUse" color-interpolation-filters="sRGB">
<feFlood flood-opacity="0" result="BackgroundImageFix"/>
<feGaussianBlur in="BackgroundImageFix" stdDeviation="144.85"/>
<feComposite in2="SourceAlpha" operator="in" result="effect1_backgroundBlur_0_1"/>
<feBlend mode="normal" in="SourceGraphic" in2="effect1_backgroundBlur_0_1" result="shape"/>
</filter>
<filter id="filter24_b_0_1" x="320.8" y="461.32" width="649.4" height="649.4" filterUnits="userSpaceOnUse" color-interpolation-filters="sRGB">
<feFlood flood-opacity="0" result="BackgroundImageFix"/>
<feGaussianBlur in="BackgroundImageFix" stdDeviation="144.85"/>
<feComposite in2="SourceAlpha" operator="in" result="effect1_backgroundBlur_0_1"/>
<feBlend mode="normal" in="SourceGraphic" in2="effect1_backgroundBlur_0_1" result="shape"/>
</filter>
<linearGradient id="paint0_linear_0_1" x1="184.627" y1="323.271" x2="489.05" y2="888.936" gradientUnits="userSpaceOnUse">
<stop stop-color="#1E2341" stop-opacity="0"/>
<stop offset="0.89" stop-color="#E7E9F5"/>
<stop offset="1" stop-color="#343958"/>
</linearGradient>
<linearGradient id="paint1_linear_0_1" x1="184.517" y1="81.2931" x2="269.513" y2="409.978" gradientUnits="userSpaceOnUse">
<stop stop-color="#11183C"/>
<stop offset="0.15" stop-color="#E7E9F5"/>
<stop offset="0.315" stop-color="#1E2341"/>
<stop offset="1" stop-color="#343958"/>
</linearGradient>
<linearGradient id="paint2_linear_0_1" x1="392.37" y1="81.2931" x2="517.087" y2="379.861" gradientUnits="userSpaceOnUse">
<stop stop-color="#11183C"/>
<stop offset="0.15" stop-color="#E7E9F5"/>
<stop offset="0.315" stop-color="#1E2341"/>
<stop offset="0.515" stop-color="#E7E9F5"/>
<stop offset="1" stop-color="#343958"/>
</linearGradient>
<linearGradient id="paint3_linear_0_1" x1="486.352" y1="231.499" x2="486.352" y2="358.048" gradientUnits="userSpaceOnUse">
<stop stop-color="#0A0E24"/>
<stop offset="1" stop-color="#0A0E24" stop-opacity="0.5"/>
</linearGradient>
<linearGradient id="paint4_linear_0_1" x1="563.577" y1="98.0098" x2="563.577" y2="358.047" gradientUnits="userSpaceOnUse">
<stop stop-color="#0A0E24"/>
<stop offset="1" stop-color="#0A0E24" stop-opacity="0.5"/>
</linearGradient>
<linearGradient id="paint5_linear_0_1" x1="600.196" y1="358.047" x2="600.196" y2="899.009" gradientUnits="userSpaceOnUse">
<stop stop-color="#0A0E24"/>
<stop offset="1" stop-color="#0A0E24" stop-opacity="0.5"/>
</linearGradient>
<linearGradient id="paint6_linear_0_1" x1="449.389" y1="358.047" x2="449.389" y2="667.169" gradientUnits="userSpaceOnUse">
<stop stop-color="#0A0E24"/>
<stop offset="1" stop-color="#0A0E24" stop-opacity="0.5"/>
</linearGradient>
<linearGradient id="paint7_linear_0_1" x1="373.505" y1="389.924" x2="373.505" y2="629.561" gradientUnits="userSpaceOnUse">
<stop stop-color="#0A0E24"/>
<stop offset="1" stop-color="#0A0E24" stop-opacity="0.5"/>
</linearGradient>
<linearGradient id="paint8_linear_0_1" x1="309.528" y1="358.047" x2="309.528" y2="550.788" gradientUnits="userSpaceOnUse">
<stop stop-color="#0A0E24"/>
<stop offset="1" stop-color="#0A0E24" stop-opacity="0.5"/>
</linearGradient>
<linearGradient id="paint9_linear_0_1" x1="1123.5" y1="351.01" x2="-30.5" y2="351.01" gradientUnits="userSpaceOnUse">
<stop stop-color="#4C81D0" stop-opacity="0"/>
<stop offset="0.83" stop-color="#3A75CF"/>
</linearGradient>
<linearGradient id="paint10_linear_0_1" x1="280.5" y1="116" x2="280.5" y2="150" gradientUnits="userSpaceOnUse">
<stop stop-color="white"/>
<stop offset="1" stop-color="#BBC0C7"/>
</linearGradient>
<linearGradient id="paint11_linear_0_1" x1="758" y1="118.02" x2="758" y2="161.06" gradientUnits="userSpaceOnUse">
<stop stop-color="white"/>
<stop offset="1" stop-color="#BBC0C7"/>
</linearGradient>
<linearGradient id="paint12_linear_0_1" x1="649.5" y1="70.0195" x2="649.5" y2="117.02" gradientUnits="userSpaceOnUse">
<stop stop-color="white"/>
<stop offset="1" stop-color="#BBC0C7"/>
</linearGradient>
<linearGradient id="paint13_linear_0_1" x1="408.56" y1="13" x2="408.56" y2="57" gradientUnits="userSpaceOnUse">
<stop stop-color="white"/>
<stop offset="1" stop-color="#BBC0C7"/>
</linearGradient>
<linearGradient id="paint14_linear_0_1" x1="408.56" y1="13" x2="408.56" y2="57" gradientUnits="userSpaceOnUse">
<stop stop-color="white"/>
<stop offset="1" stop-color="#BBC0C7"/>
</linearGradient>
<linearGradient id="paint15_linear_0_1" x1="408.56" y1="13" x2="408.56" y2="57" gradientUnits="userSpaceOnUse">
<stop stop-color="white"/>
<stop offset="1" stop-color="#BBC0C7"/>
</linearGradient>
<linearGradient id="paint16_linear_0_1" x1="408.56" y1="13" x2="408.56" y2="57" gradientUnits="userSpaceOnUse">
<stop stop-color="white"/>
<stop offset="1" stop-color="#BBC0C7"/>
</linearGradient>
<linearGradient id="paint17_linear_0_1" x1="408.56" y1="13" x2="408.56" y2="57" gradientUnits="userSpaceOnUse">
<stop stop-color="white"/>
<stop offset="1" stop-color="#BBC0C7"/>
</linearGradient>
<linearGradient id="paint18_linear_0_1" x1="408.56" y1="13" x2="408.56" y2="57" gradientUnits="userSpaceOnUse">
<stop stop-color="white"/>
<stop offset="1" stop-color="#BBC0C7"/>
</linearGradient>
<linearGradient id="paint19_linear_0_1" x1="408.56" y1="13" x2="408.56" y2="57" gradientUnits="userSpaceOnUse">
<stop stop-color="white"/>
<stop offset="1" stop-color="#BBC0C7"/>
</linearGradient>
<linearGradient id="paint20_linear_0_1" x1="159.5" y1="617.02" x2="159.5" y2="659.02" gradientUnits="userSpaceOnUse">
<stop stop-color="white"/>
<stop offset="1" stop-color="#BBC0C7"/>
</linearGradient>
<linearGradient id="paint21_linear_0_1" x1="751.5" y1="639" x2="751.5" y2="681" gradientUnits="userSpaceOnUse">
<stop stop-color="white"/>
<stop offset="1" stop-color="#BBC0C7"/>
</linearGradient>
<linearGradient id="paint22_linear_0_1" x1="763.8" y1="649.5" x2="759" y2="649.5" gradientUnits="userSpaceOnUse">
<stop stop-color="white"/>
<stop offset="1" stop-color="#BBC0C7"/>
</linearGradient>
<linearGradient id="paint23_linear_0_1" x1="286.222" y1="780.02" x2="286.222" y2="811.16" gradientUnits="userSpaceOnUse">
<stop stop-color="white"/>
<stop offset="1" stop-color="#BBC0C7"/>
</linearGradient>
<linearGradient id="paint24_linear_0_1" x1="304.698" y1="780.02" x2="304.698" y2="811.16" gradientUnits="userSpaceOnUse">
<stop stop-color="white"/>
<stop offset="1" stop-color="#BBC0C7"/>
</linearGradient>
<linearGradient id="paint25_linear_0_1" x1="323.5" y1="663" x2="323.5" y2="690" gradientUnits="userSpaceOnUse">
<stop stop-color="white"/>
<stop offset="1" stop-color="#BBC0C7"/>
</linearGradient>
<linearGradient id="paint26_linear_0_1" x1="260" y1="547" x2="260" y2="572" gradientUnits="userSpaceOnUse">
<stop stop-color="white"/>
<stop offset="1" stop-color="#BBC0C7"/>
</linearGradient>
<linearGradient id="paint27_linear_0_1" x1="260" y1="547" x2="260" y2="572" gradientUnits="userSpaceOnUse">
<stop stop-color="white"/>
<stop offset="1" stop-color="#BBC0C7"/>
</linearGradient>
<linearGradient id="paint28_linear_0_1" x1="760.5" y1="765" x2="760.5" y2="803" gradientUnits="userSpaceOnUse">
<stop stop-color="white"/>
<stop offset="1" stop-color="#BBC0C7"/>
</linearGradient>
<linearGradient id="paint29_linear_0_1" x1="760.5" y1="765" x2="760.5" y2="803" gradientUnits="userSpaceOnUse">
<stop stop-color="white"/>
<stop offset="1" stop-color="#BBC0C7"/>
</linearGradient>
<linearGradient id="paint30_linear_0_1" x1="760.5" y1="765" x2="760.5" y2="803" gradientUnits="userSpaceOnUse">
<stop stop-color="white"/>
<stop offset="1" stop-color="#BBC0C7"/>
</linearGradient>
<linearGradient id="paint31_linear_0_1" x1="610.5" y1="608" x2="610.5" y2="649.6" gradientUnits="userSpaceOnUse">
<stop stop-color="white"/>
<stop offset="1" stop-color="#BBC0C7"/>
</linearGradient>
<linearGradient id="paint32_linear_0_1" x1="408.5" y1="553" x2="408.5" y2="599" gradientUnits="userSpaceOnUse">
<stop stop-color="white"/>
<stop offset="1" stop-color="#BBC0C7"/>
</linearGradient>
<linearGradient id="paint33_linear_0_1" x1="408.5" y1="553" x2="408.5" y2="599" gradientUnits="userSpaceOnUse">
<stop stop-color="white"/>
<stop offset="1" stop-color="#BBC0C7"/>
</linearGradient>
<linearGradient id="paint34_linear_0_1" x1="408.5" y1="553" x2="408.5" y2="599" gradientUnits="userSpaceOnUse">
<stop stop-color="white"/>
<stop offset="1" stop-color="#BBC0C7"/>
</linearGradient>
<linearGradient id="paint35_linear_0_1" x1="408.5" y1="553" x2="408.5" y2="599" gradientUnits="userSpaceOnUse">
<stop stop-color="white"/>
<stop offset="1" stop-color="#BBC0C7"/>
</linearGradient>
<linearGradient id="paint36_linear_0_1" x1="408.5" y1="553" x2="408.5" y2="599" gradientUnits="userSpaceOnUse">
<stop stop-color="white"/>
<stop offset="1" stop-color="#BBC0C7"/>
</linearGradient>
<linearGradient id="paint37_linear_0_1" x1="646" y1="762.985" x2="646" y2="809.716" gradientUnits="userSpaceOnUse">
<stop stop-color="white"/>
<stop offset="1" stop-color="#BBC0C7"/>
</linearGradient>
<linearGradient id="paint38_linear_0_1" x1="1128.5" y1="350.997" x2="-25.5" y2="350.997" gradientUnits="userSpaceOnUse">
<stop stop-color="#4C81D0" stop-opacity="0"/>
<stop offset="0.83" stop-color="#3A75CF"/>
</linearGradient>
<clipPath id="clip0_0_1">
<rect width="47" height="47" fill="white" transform="translate(626 70.0195)"/>
</clipPath>
</defs>
</svg>
