<svg width="21" height="20" viewBox="0 0 21 20" fill="none" xmlns="http://www.w3.org/2000/svg">
<path d="M18.5 10.0098C18.5 8.9052 17.6046 8.00977 16.5 8.00977C15.3954 8.00977 14.5 8.9052 14.5 10.0098C14.5 11.1143 15.3954 12.0098 16.5 12.0098C17.6046 12.0098 18.5 11.1143 18.5 10.0098Z" stroke="white" stroke-width="1.25" stroke-linecap="round" stroke-linejoin="round"/>
<path d="M6.5 15.0098C6.5 13.9052 5.60457 13.0098 4.5 13.0098C3.39543 13.0098 2.5 13.9052 2.5 15.0098C2.5 16.1143 3.39543 17.0098 4.5 17.0098C5.60457 17.0098 6.5 16.1143 6.5 15.0098Z" stroke="white" stroke-linecap="round" stroke-linejoin="round"/>
<path d="M6.5 5.00977C6.5 3.9052 5.60457 3.00977 4.5 3.00977C3.39543 3.00977 2.5 3.9052 2.5 5.00977C2.5 6.11434 3.39543 7.00977 4.5 7.00977C5.60457 7.00977 6.5 6.11434 6.5 5.00977Z" stroke="white" stroke-linecap="round" stroke-linejoin="round"/>
<path d="M6.49963 15.0098L8.49963 15.0098C9.03007 15.0098 9.53877 14.7991 9.91385 14.424C10.2889 14.0489 10.4996 13.5402 10.4996 13.0098L10.4996 7.00976C10.4996 6.47933 10.2889 5.97062 9.91385 5.59555C9.53877 5.22048 9.03007 5.00976 8.49963 5.00976L6.49963 5.00976" stroke="white" stroke-linecap="round" stroke-linejoin="round"/>
<path d="M10.4998 10.0098L14.4998 10.0098" stroke="white" stroke-linecap="round" stroke-linejoin="round"/>
</svg>
