<svg width="21" height="20" viewBox="0 0 21 20" fill="none" xmlns="http://www.w3.org/2000/svg">
<g clip-path="url(#clip0_116_7033)">
<path d="M6.7 10.9098C7.22467 10.9098 7.65 10.4844 7.65 9.95977C7.65 9.4351 7.22467 9.00977 6.7 9.00977C6.17533 9.00977 5.75 9.4351 5.75 9.95977C5.75 10.4844 6.17533 10.9098 6.7 10.9098Z" fill="white"/>
<path d="M10.2 10.9098C10.7247 10.9098 11.15 10.4844 11.15 9.95977C11.15 9.4351 10.7247 9.00977 10.2 9.00977C9.67533 9.00977 9.25 9.4351 9.25 9.95977C9.25 10.4844 9.67533 10.9098 10.2 10.9098Z" fill="white"/>
<path d="M13.7 10.9098C14.2247 10.9098 14.65 10.4844 14.65 9.95977C14.65 9.4351 14.2247 9.00977 13.7 9.00977C13.1753 9.00977 12.75 9.4351 12.75 9.95977C12.75 10.4844 13.1753 10.9098 13.7 10.9098Z" fill="white"/>
</g>
<defs>
<clipPath id="clip0_116_7033">
<rect width="20" height="20" fill="white" transform="translate(0.25 0.00976562)"/>
</clipPath>
</defs>
</svg>
